<svg xmlns="http://www.w3.org/2000/svg" xmlns:xlink="http://www.w3.org/1999/xlink" width="600" zoomAndPan="magnify" viewBox="0 0 450 449.999984" height="600" preserveAspectRatio="xMidYMid meet" version="1.0"><defs><g/></defs><g fill="#ffb800" fill-opacity="1"><g transform="translate(164.837252, 254.849966)"><g><path d="M 5.984375 0 L 5.984375 -62.390625 L 13.265625 -62.390625 L 13.265625 -24.875 L 30.84375 -42.984375 L 39.78125 -42.984375 L 20.703125 -23.578125 L 42.203125 0 L 32.921875 0 L 13.265625 -22.265625 L 13.265625 0 Z M 5.984375 0 "/></g></g></g><g fill="#ffffff" fill-opacity="1"><g transform="translate(208.524748, 254.849966)"><g><path d="M 6.40625 0 L 6.40625 -60.65625 L 13.6875 -60.65625 L 46.015625 -12.046875 L 46.015625 -60.65625 L 53.296875 -60.65625 L 53.296875 0 L 46.015625 0 L 13.6875 -48.609375 L 13.6875 0 Z M 6.40625 0 "/></g></g></g><g fill="#ffb800" fill-opacity="1"><g transform="translate(268.243497, 254.849966)"><g><path d="M 8.5 0.4375 C 7.050781 0.4375 5.847656 -0.0351562 4.890625 -0.984375 C 3.941406 -1.941406 3.46875 -3.113281 3.46875 -4.5 C 3.46875 -5.882812 3.941406 -7.054688 4.890625 -8.015625 C 5.847656 -8.972656 7.050781 -9.453125 8.5 -9.453125 C 9.882812 -9.453125 11.050781 -8.972656 12 -8.015625 C 12.957031 -7.054688 13.4375 -5.882812 13.4375 -4.5 C 13.4375 -3.113281 12.957031 -1.941406 12 -0.984375 C 11.050781 -0.0351562 9.882812 0.4375 8.5 0.4375 Z M 8.5 0.4375 "/></g></g></g></svg>